<svg id="visual" viewBox="0 0 900 600" width="900" height="600" xmlns="http://www.w3.org/2000/svg" xmlns:xlink="http://www.w3.org/1999/xlink" version="1.1"><g transform="translate(409.14947152207486 283.50521386858986)"><path d="M113.5 -117.3C162.8 -94 229.1 -73 256.2 -29C283.3 15.1 271.1 82.3 238.1 135.6C205.1 188.9 151.3 228.4 97 234C42.8 239.6 -12 211.4 -63.6 187.2C-115.2 163 -163.7 142.7 -181 107.2C-198.2 71.7 -184.3 20.8 -180 -36.6C-175.7 -94.1 -181.1 -158.1 -152.7 -185.1C-124.3 -212.1 -62.1 -202.1 -15 -184.2C32.1 -166.3 64.3 -140.6 113.5 -117.3" fill="#CFEBFF"></path></g></svg>