<svg xmlns="http://www.w3.org/2000/svg" version="1.1" xmlns:xlink="http://www.w3.org/1999/xlink" width="512" height="512" x="0" y="0" viewBox="0 0 410 410" style="enable-background:new 0 0 512 512" xml:space="preserve" class="hovered-paths"><g><path fill="#89ff91" d="M410 40v58.09H0V40C0 17.91 17.91 0 40 0h330c22.09 0 40 17.91 40 40zm0 0" opacity="1" data-original="#f8ec7d" class=""></path><g fill="#e48e66"><path d="M180.71 34.5c8.368.027 15.126 6.832 15.099 15.2-.028 8.366-6.832 15.128-15.2 15.1-8.367-.027-15.125-6.831-15.097-15.198.031-8.368 6.832-15.125 15.199-15.102zM410 98.09v221.988c0 22.094-17.91 40-40 40H40c-22.09 0-40-17.906-40-40V98.09zM112.648 34.29c8.368.026 15.13 6.831 15.102 15.198-.027 8.367-6.832 15.13-15.2 15.102-8.366-.028-15.128-6.832-15.1-15.2a15.162 15.162 0 0 1 4.468-10.703 15.149 15.149 0 0 1 10.73-4.398zM44.59 34.07c8.37.024 15.137 6.828 15.11 15.2-.024 8.37-6.829 15.136-15.2 15.109-8.371-.024-15.137-6.828-15.11-15.2a15.145 15.145 0 0 1 15.2-15.109zm0 0" fill="#ffffff" opacity="1" data-original="#e48e66" class="hovered-path"></path></g><path fill="#89ff91" d="M160.285 265.129a6.974 6.974 0 0 1-4.535-1.668l-45.29-38.57a7.006 7.006 0 0 1-2.46-5.332c0-2.051.898-4 2.46-5.329l45.29-38.57a7 7 0 0 1 9.867.79 7 7 0 0 1-.789 9.87l-39.027 33.239 39.031 33.242a7.005 7.005 0 0 1 2.031 7.75 6.995 6.995 0 0 1-6.574 4.578zM249.715 265.129a6.995 6.995 0 0 1-6.574-4.578 7.005 7.005 0 0 1 2.03-7.75l39.028-33.242-39.031-33.239a7 7 0 0 1-.79-9.87 7 7 0 0 1 9.868-.79l45.29 38.57a6.992 6.992 0 0 1 2.46 5.329c0 2.05-.898 4-2.46 5.332l-45.29 38.57a6.985 6.985 0 0 1-4.531 1.668zM188.969 294.063a7.015 7.015 0 0 1-5.442-2.59 7.015 7.015 0 0 1-1.418-5.856l28.23-134.039a7 7 0 0 1 13.7 2.887l-28.23 134.039a7.001 7.001 0 0 1-6.84 5.559zm0 0" opacity="1" data-original="#af593c" class=""></path></g></svg>