<svg xmlns="http://www.w3.org/2000/svg" version="1.1" xmlns:xlink="http://www.w3.org/1999/xlink" width="512" height="512" x="0" y="0" viewBox="0 0 512 512" style="enable-background:new 0 0 512 512" xml:space="preserve" class=""><g><path fill="#f6e266" d="M39.545 362.042V478.7h83.252V362.042c0-5.69-4.612-10.302-10.302-10.302H49.847c-5.69 0-10.302 4.612-10.302 10.302z" opacity="1" data-original="#f6e266"></path><path fill="#e49542" d="M156.098 312.09v166.609h83.252V312.09c0-5.69-4.612-10.302-10.302-10.302H166.4c-5.69.001-10.302 4.613-10.302 10.302z" opacity="1" data-original="#e49542"></path><path fill="#c7ffca" d="M272.65 249.651v229.048h83.252V249.651c0-5.69-4.612-10.302-10.302-10.302h-62.648c-5.689.001-10.302 4.613-10.302 10.302z" opacity="1" data-original="#9dc6fb" class=""></path><path fill="#c8ea73" d="M389.203 208.025v270.674h83.252V208.025c0-5.69-4.612-10.302-10.302-10.302h-62.648c-5.689.001-10.302 4.613-10.302 10.302z" opacity="1" data-original="#c8ea73" class=""></path><path fill="#89ff91" d="M272.65 368.144v110.555h83.252V327.705c-25.572 14.577-53.471 28.197-83.252 40.439z" opacity="1" data-original="#80b4fb" class=""></path><path fill="#e28424" d="M220.515 387.482a799.722 799.722 0 0 1-64.417 18.47v72.747h83.252v-97.734a819.298 819.298 0 0 1-18.835 6.517z" opacity="1" data-original="#e28424"></path><path fill="#f1d333" d="M39.545 424.098v54.601h83.252v-65.491c-28.8 5.585-56.722 9.193-83.252 10.89z" opacity="1" data-original="#f1d333" class=""></path><path fill="#b7e445" d="M389.203 307.327v171.372h83.252V238.126c-21.736 23.821-49.92 47.292-83.252 69.201z" opacity="1" data-original="#b7e445" class=""></path><path fill="#ffffff" d="M0 501.698v-12.697c0-5.69 4.612-10.302 10.302-10.302h491.396c5.69 0 10.302 4.612 10.302 10.302v12.697c0 5.69-4.612 10.302-10.302 10.302H10.302C4.612 512 0 507.388 0 501.698z" opacity="1" data-original="#4073c8" class=""></path><path fill="#ffffff" d="M455.805 0h-72.95c-5.69 0-10.302 4.612-10.302 10.302v12.697c0 5.69 4.612 10.302 10.302 10.302h32.752l-87.414 87.415h-69.071c-4.667 0-9.12 1.959-12.274 5.399l-98.075 106.991H48.806c-5.69 0-10.302 4.612-10.302 10.302v12.697c0 5.69 4.612 10.302 10.302 10.302h107.292c4.667 0 9.12-1.959 12.274-5.399l98.075-106.991h68.643a16.65 16.65 0 0 0 11.774-4.877l92.291-92.291v32.752c0 5.69 4.612 10.302 10.302 10.302h12.697c5.69 0 10.302-4.612 10.302-10.302V16.65C472.455 7.455 465.001 0 455.805 0z" opacity="1" data-original="#dd5790" class=""></path></g></svg>