<svg xmlns="http://www.w3.org/2000/svg" version="1.1" xmlns:xlink="http://www.w3.org/1999/xlink" width="512" height="512" x="0" y="0" viewBox="0 0 68 68" style="enable-background:new 0 0 512 512" xml:space="preserve"><g><path d="M27.578 7.748h5.083a1 1 0 0 0 0-2h-5.083a1 1 0 0 0 0 2zM23.045 61.584h9.066a1 1 0 0 0 0-2h-9.066a1 1 0 0 0 0 2z" fill="#000000" opacity="1" data-original="#000000"></path><path d="M10.155 51.634a1 1 0 0 0 1-1V11.5H44v5.144a1 1 0 0 0 2 0l.004-10.664c0-2.19-1.79-3.98-3.987-3.98H13.135c-2.09 0-3.98 1.72-3.98 3.983v44.651a1 1 0 0 0 1 1zM42.015 4c1.057 0 1.986.865 1.986 1.983V9.5H11.155V5.98c0-1.09.894-1.98 1.983-1.98z" fill="#000000" opacity="1" data-original="#000000"></path><path d="M33.749 27.196a1 1 0 0 0 1.414-.007l4.18-4.218a1 1 0 0 0 0-1.407l-4.18-4.218a1 1 0 0 0-1.42 1.407l3.481 3.515-3.482 3.514a1 1 0 0 0 .007 1.414zM21.406 17.339a.998.998 0 0 0-1.414.007l-4.179 4.218a1 1 0 0 0 0 1.407l4.18 4.218a1 1 0 1 0 1.42-1.407l-3.481-3.514 3.481-3.515a1 1 0 0 0-.007-1.414zM29.19 14.513l-5.87 14.77a1 1 0 1 0 1.859.739l5.87-14.77a1 1 0 1 0-1.86-.739zM45.005 33.04c-2.93 0-5.31 2.38-5.31 5.31 0 2.958 2.412 5.31 5.31 5.31 2.886 0 5.3-2.348 5.3-5.31 0-2.93-2.38-5.31-5.3-5.31zm1 8.46v-3.81c0-.55-.45-1-1-1-.56 0-1 .45-1 1v3.82a3.314 3.314 0 0 1 1-6.47c1.82 0 3.3 1.49 3.3 3.31 0 1.48-.97 2.73-2.3 3.15z" fill="#000000" opacity="1" data-original="#000000"></path><path d="m57.955 35.19-2.46-.28c-.19-.58-.43-1.15-.72-1.7l1.44-2.04c.29-.39.24-.94-.1-1.28l-2.87-2.86a.996.996 0 0 0-1.33-.08l-1.93 1.55c-.55-.28-1.12-.51-1.71-.69l-.41-2.47a1 1 0 0 0-.99-.83h-4.05c-.51 0-.94.38-1 .89l-.27 2.47c-.59.19-1.15.43-1.69.71l-2.05-1.45a.988.988 0 0 0-1.28.11l-2.86 2.86c-.36.36-.39.93-.07 1.33l1.54 1.94c-.28.55-.51 1.12-.69 1.71l-2.46.41c-.48.09-.84.5-.84.99v4.05c0 .51.39.93.89.99l2.46.28c.19.59.44 1.16.72 1.7l-1.44 2.03c-.28.4-.24.94.11 1.29l2.86 2.86c.36.36.93.39 1.33.07l1.94-1.54c.55.27 1.11.5 1.7.68l.41 2.47a1 1 0 0 0 .99.84h.88v2.21h-33.85c-.55 0-1 .45-1 1v6.61a3.99 3.99 0 0 0 3.98 3.98h28.88c2.2 0 3.99-1.79 3.99-3.98V52.2h1.17c.51 0 .94-.38 1-.89l.28-2.47a11.4 11.4 0 0 0 1.69-.71l2.04 1.45c.4.28.94.23 1.29-.11l2.85-2.87c.36-.36.39-.93.07-1.32l-1.54-1.94c.28-.56.51-1.13.69-1.71l2.46-.42c.48-.08.84-.5.84-.98v-4.05c0-.51-.38-.94-.89-.99zm-13.95 26.83c0 1.09-.89 1.98-1.99 1.98h-28.88c-1.09 0-1.98-.89-1.98-1.98v-5.61h32.85v5.61zm12.84-22.64-2.26.38c-.4.07-.71.36-.81.76-.2.84-.53 1.65-.97 2.42-.21.35-.18.8.08 1.12l1.39 1.76-1.62 1.64-1.88-1.34a1 1 0 0 0-1.1-.03c-.73.45-1.53.79-2.38 1-.41.1-.71.45-.76.86l-.25 2.25h-2.32l-.38-2.27a.982.982 0 0 0-.75-.8c-.84-.21-1.65-.54-2.4-.98a.995.995 0 0 0-1.13.08l-1.77 1.4-1.63-1.63 1.32-1.85c.213-.301.25-.746.04-1.12-.45-.73-.8-1.54-1.02-2.4a.98.98 0 0 0-.85-.74l-2.24-.26v-2.3l2.26-.38c.4-.07.72-.37.81-.76.2-.85.53-1.66.98-2.4.21-.36.19-.81-.07-1.14l-1.41-1.77 1.63-1.63 1.87 1.33a1 1 0 0 0 1.1.04c.73-.45 1.54-.79 2.4-1.01.4-.1.69-.44.74-.85l.25-2.25h2.32l.38 2.26c.07.4.36.72.75.81.85.2 1.66.53 2.41.98.36.21.81.18 1.13-.08l1.76-1.41 1.63 1.64-1.32 1.86c-.21.297-.253.731-.04 1.11.46.75.8 1.56 1.01 2.39.1.4.44.7.86.75l2.24.25v2.31z" fill="#000000" opacity="1" data-original="#000000"></path></g></svg>