<svg xmlns="http://www.w3.org/2000/svg" version="1.1" xmlns:xlink="http://www.w3.org/1999/xlink" width="512" height="512" x="0" y="0" viewBox="0 0 24 24" style="enable-background:new 0 0 512 512" xml:space="preserve"><g><path d="M11.861 19.066a.502.502 0 0 1-.354-.146L5.08 12.493a.5.5 0 0 1-.02-.687L9.877 6.41c3.367-3.939 8.85-6.488 13.631-6.407a.5.5 0 0 1 .488.488c.111 4.784-2.467 10.264-6.416 13.638l-5.387 4.81a.495.495 0 0 1-.332.127zm-5.74-6.946 5.759 5.759 5.043-4.502c3.606-3.082 6.001-7.994 6.075-12.375-4.381.073-9.292 2.468-12.368 6.066z" fill="#000000" opacity="1" data-original="#000000"></path><path d="M13.776 22.726a.464.464 0 0 1-.143-.022c-.18-.06-.328-.198-.354-.386l-.686-4.787a.501.501 0 0 1 .99-.142l.536 3.74a11.675 11.675 0 0 0 2.726-7.459.5.5 0 0 1 1 0c0 3.313-1.342 6.556-3.682 8.895-.1.1-.246.161-.387.161zM6.541 11.412a.431.431 0 0 1-.071-.005l-4.787-.686a.5.5 0 0 1-.28-.851 12.692 12.692 0 0 1 8.928-3.715.5.5 0 0 1 0 1c-2.721 0-5.391.983-7.464 2.725l3.745.537a.5.5 0 0 1-.071.995zM17.133 9.366a2.492 2.492 0 0 1-1.768-.731 2.505 2.505 0 0 1 0-3.536 2.503 2.503 0 0 1 3.536 0 2.505 2.505 0 0 1 0 3.536 2.491 2.491 0 0 1-1.768.731zm0-3.998c-.384 0-.769.146-1.061.438a1.504 1.504 0 0 0 0 2.122 1.505 1.505 0 0 0 2.122 0 1.504 1.504 0 0 0 0-2.122 1.503 1.503 0 0 0-1.061-.438zm1.414 2.914h.01zM.5 24a.5.5 0 0 1-.479-.643c.164-.547 1.633-5.381 2.703-6.451a3.094 3.094 0 0 1 4.371 0 3.094 3.094 0 0 1 0 4.371c-1.07 1.07-5.904 2.539-6.451 2.703A.55.55 0 0 1 .5 24zm4.41-6.999c-.536 0-1.071.204-1.479.611-.577.578-1.537 3.159-2.171 5.128 1.968-.634 4.55-1.594 5.127-2.171a2.094 2.094 0 0 0 0-2.957 2.083 2.083 0 0 0-1.477-.611z" fill="#000000" opacity="1" data-original="#000000"></path></g></svg>