<svg xmlns="http://www.w3.org/2000/svg" version="1.1" xmlns:xlink="http://www.w3.org/1999/xlink" width="512" height="512" x="0" y="0" viewBox="0 0 64 64" style="enable-background:new 0 0 512 512" xml:space="preserve"><g><path d="m58.63 41.69-7.46-4.3 7.46-4.31a1.25 1.25 0 0 0 0-2.16l-7.45-4.31 7.41-4.28a1.22 1.22 0 0 0 .5-.48 1.25 1.25 0 0 0-.45-1.71l-26-15a1.27 1.27 0 0 0-1.25 0l-26 15a1.25 1.25 0 0 0 0 2.17l7.45 4.3-7.46 4.31a1.25 1.25 0 0 0 0 2.16l7.46 4.31-7.45 4.3a1.25 1.25 0 0 0 0 2.17l26 15A1.23 1.23 0 0 0 32 59a1.29 1.29 0 0 0 .63-.17l26-15a1.26 1.26 0 0 0 0-2.17zM32 7.66l23.5 13.56L32 34.79 8.5 21.22zm-16.67 20.4 16 9.26a1.23 1.23 0 0 0 .62.17 1.29 1.29 0 0 0 .63-.17l16-9.26L55.5 32 32 45.57 8.5 32zM32 56.34 8.5 42.78l6.83-4 16 9.26a1.22 1.22 0 0 0 1.24 0l16.05-9.26 6.83 4z" data-name="Layer 53" fill="#000000" opacity="1" data-original="#000000"></path></g></svg>