<svg xmlns="http://www.w3.org/2000/svg" version="1.1" xmlns:xlink="http://www.w3.org/1999/xlink" width="512" height="512" x="0" y="0" viewBox="0 0 512 512" style="enable-background:new 0 0 512 512" xml:space="preserve" class="hovered-paths"><g><path d="m420.841 184.138-120 113.723L256 469.113C281.911 486.056 312.797 496 346 496c90.981 0 166-74.019 166-165 0-64.026-37.731-119.52-91.159-146.862z" style="" fill="#89ff91" data-original="#25d9f8" opacity="1"></path><path d="m241.159 297.862-150-113.723C37.731 211.48 0 266.974 0 331c0 90.981 75.019 165 166 165 33.203 0 64.089-9.944 90-26.887l-14.841-171.251z" style="" fill="#42f14e" data-original="#ff641a" class="" opacity="1"></path><path d="M421 181c0 1.199 0 2.1-.3 2.999l-164.7 69-164.7-69c-.3-.899-.3-1.8-.3-2.999 0-90.901 74.099-165 165-165s165 74.099 165 165z" style="" fill="#2ca034" data-original="#ffda2d" class="hovered-path" opacity="1"></path><path d="M421 181c0 1.199 0 2.1-.3 2.999l-164.7 69V16c90.901 0 165 74.099 165 165z" style="" fill="#2ca034" data-original="#fdbf00" class="" opacity="1"></path><path d="M346 166c-33.203 0-64.089 9.944-90 26.887l74.841 134.974c52.544-26.889 88.812-81.033 90-143.723C398.346 172.627 372.955 166 346 166z" style="" fill="#0c8515" data-original="#9cdd05" class="" opacity="1"></path><path d="M166 166c-26.955 0-52.346 6.627-74.841 18.138 1.188 62.69 37.456 116.834 90 143.723L256 192.887C230.089 175.944 199.203 166 166 166z" style="" fill="#ff9d1c" data-original="#ff9100" class="" opacity="1"></path><path d="M331 331c0 57.9-30 108.6-75 137.999C211 439.6 181 388.9 181 331c0-1.201 0-2.1.3-3.001h149.4c.3.901.3 1.8.3 3.001z" style="" fill="#6fb574" data-original="#979fef" class="" opacity="1"></path><path d="M331 331c0 57.9-30 108.6-75 137.999v-141h74.7c.3.901.3 1.8.3 3.001z" style="" fill="#64c96b" data-original="#737ee6" class="" opacity="1"></path><path d="M330.7 327.999C308.2 339.399 283.001 346 256 346s-52.2-6.601-74.7-18.001c.899-56.699 30.3-106.199 74.7-135 44.399 28.801 73.801 78.301 74.7 135z" style="" fill="#1f222d" data-original="#47568c" class="" opacity="1"></path><path d="M330.7 327.999C308.2 339.399 283.001 346 256 346V192.999c44.399 28.801 73.801 78.301 74.7 135z" style="" fill="#274929" data-original="#2c3b73" class="" opacity="1"></path></g></svg>